<svg xmlns="http://www.w3.org/2000/svg" width="15.007" height="21" viewBox="0 0 15.007 21"><path d="M13.463-.254a.715.715,0,0,1-.71.235.708.708,0,0,1-.529-.524.7.7,0,0,1,.237-.7L17.573-6.32H.676A.71.71,0,0,1,0-7.027a.71.71,0,0,1,.676-.706h16.9L12.453-12.8a.715.715,0,0,1,0-.993.711.711,0,0,1,.5-.206.711.711,0,0,1,.5.206l6.332,6.277a.686.686,0,0,1,.213.5.686.686,0,0,1-.213.5Z" transform="translate(14.5 20.5) rotate(-90)" fill="#0053a5" stroke="#0053a5" stroke-miterlimit="10" stroke-width="1"/></svg>