<svg xmlns="http://www.w3.org/2000/svg" viewBox="0 0 18 18"><defs><style>.cls-1{fill:#383838;}</style></defs><title>Ресурс 1</title><g id="Слой_2" data-name="Слой 2"><g id="Слой_1-2" data-name="Слой 1"><path class="cls-1" d="M1.83,5.4h2.6V7.2H6.26V5.4h5.48V7.2h1.83V5.4h2.6L14.6,16.2H3.39ZM6.32,3.6A2.81,2.81,0,0,1,9,1.8a2.82,2.82,0,0,1,2.69,1.8Zm-4.49,0-.26,0A1.8,1.8,0,0,0,0,5.65L1.58,16.46A1.82,1.82,0,0,0,3.39,18H14.6a1.81,1.81,0,0,0,1.81-1.54L18,5.65a2,2,0,0,0,0-.25,1.82,1.82,0,0,0-1.83-1.8H13.54A4.53,4.53,0,0,0,9,0,4.52,4.52,0,0,0,4.46,3.6Z"/></g></g></svg>