<?xml version="1.0" encoding="UTF-8"?>
<svg width="27px" height="22px" viewBox="0 0 27 22" version="1.1" xmlns="http://www.w3.org/2000/svg" xmlns:xlink="http://www.w3.org/1999/xlink">
    <!-- Generator: Sketch 52.1 (67048) - http://www.bohemiancoding.com/sketch -->
    <title>Path</title>
    <desc>Created with Sketch.</desc>
    <g id="Page-1" stroke="none" stroke-width="1" fill="none" fill-rule="evenodd">
        <g id="Новость" transform="translate(-106.000000, -668.000000)" fill="#383838">
            <g id="Group-12" transform="translate(40.000000, 279.000000)">
                <g id="Group-3" transform="translate(24.000000, 360.000000)">
                    <g id="Group-40" transform="translate(30.000000, 15.000000)">
                        <g id="Group-37">
                            <g id="Group-11" transform="translate(12.000000, 14.000000)">
                                <g id="twitter-logo-silhouette">
                                    <path d="M26.8529412,2.60294618 C25.8646021,3.0446553 24.8041286,3.34421738 23.6899053,3.47795598 C24.827603,2.79080864 25.6984822,1.70089657 26.1112372,0.406172365 C25.0440504,1.04251497 23.8660731,1.5045814 22.6109155,1.75506468 C21.6058152,0.673605314 20.1761571,0 18.5904269,0 C15.5482294,0 13.0815721,2.48788318 13.0815721,5.55457748 C13.0815721,5.98951559 13.1302321,6.41431931 13.2242176,6.82053593 C8.64666119,6.58863974 4.58760433,4.37664221 1.87093347,1.01543091 C1.39604808,1.83459091 1.12589477,2.78908269 1.12589477,3.8079655 C1.12589477,5.73566892 2.09913996,7.43656549 3.57579088,8.43168336 C2.67301283,8.40123592 1.82394074,8.15075264 1.08061326,7.73440162 L1.08061326,7.80379346 C1.08061326,10.4947628 2.98011093,12.7406154 5.49876297,13.2517606 C5.03730408,13.3770023 4.55070342,13.4463941 4.0472977,13.4463941 C3.69158341,13.4463941 3.34758438,13.4108574 3.0102986,13.3431472 C3.71167927,15.5517814 5.74544187,17.1578837 8.1550585,17.2019174 C6.27065466,18.6912751 3.89460426,19.5764193 1.31386566,19.5764193 C0.86921182,19.5764193 0.431227348,19.5493353 0,19.5002565 C2.43813696,21.079319 5.33268691,22 8.44368421,22 C18.5770881,22 24.1161744,13.5344173 24.1161744,6.19264603 L24.0977021,5.47336956 C25.1799827,4.69479139 26.1162831,3.71657893 26.8529412,2.60294618 Z" id="Path"></path>
                                </g>
                            </g>
                        </g>
                    </g>
                </g>
            </g>
        </g>
    </g>
</svg>