<svg xmlns="http://www.w3.org/2000/svg" viewBox="0 0 20 20"><defs><style>.cls-1{fill:#383838;}</style></defs><title>user</title><g id="Слой_2" data-name="Слой 2"><g id="Слой_1-2" data-name="Слой 1"><path id="noktc" class="cls-1" d="M10,6.36a1.84,1.84,0,0,1,1.82,2c0,1.91-.75,2.55-1.82,2.55s-1.82-.67-1.82-2.73A1.7,1.7,0,0,1,10,6.36Zm3.65,2A3.64,3.64,0,0,0,10,4.54,3.51,3.51,0,0,0,6.36,8.18C6.36,11.3,8,12.73,10,12.73S13.65,11.35,13.65,8.36ZM10,18.17a8.13,8.13,0,0,1-5.42-2.05c.26-1,2.18-1.58,5.42-1.58s5.16.63,5.42,1.58A8.08,8.08,0,0,1,10,18.17Zm0-5.44c-3.3,0-5.7.58-6.73,1.93a8.19,8.19,0,1,1,13.46,0c-1-1.35-3.43-1.93-6.73-1.93ZM20,10A10,10,0,1,0,10,20,10,10,0,0,0,20,10Z"/></g></g></svg>