<svg xmlns="http://www.w3.org/2000/svg" viewBox="0 0 24.86 14"><defs><style>.cls-1{fill:#fff;}</style></defs><title>vk</title><g id="Слой_2" data-name="Слой 2"><g id="Слой_1-2" data-name="Слой 1"><path id="ctyxa" class="cls-1" d="M24.73,12.64l-.09-.16a12.86,12.86,0,0,0-2.47-2.82l0,0v0h0a12,12,0,0,1-1.05-1,1,1,0,0,1-.18-1A9.13,9.13,0,0,1,22,5.85l.84-1.08Q25.12,1.83,24.82,1L24.75.88a.94.94,0,0,0-.4-.21,2.21,2.21,0,0,0-.83,0l-3.73,0a.46.46,0,0,0-.26,0l-.17,0-.06,0-.05,0a.5.5,0,0,0-.15.14,1.16,1.16,0,0,0-.13.22A20.45,20.45,0,0,1,17.59,4c-.32.53-.61,1-.88,1.38a6.44,6.44,0,0,1-.67.85,4.14,4.14,0,0,1-.5.44c-.14.11-.25.16-.33.14L15,6.77a.79.79,0,0,1-.29-.31,1.39,1.39,0,0,1-.15-.5,4.36,4.36,0,0,1-.05-.52c0-.2,0-.4,0-.61s0-.44,0-.53c0-.33,0-.68,0-1.06s0-.68,0-.9,0-.46,0-.7a2.82,2.82,0,0,0-.05-.58A1.42,1.42,0,0,0,14.4.65a.61.61,0,0,0-.26-.31,1.33,1.33,0,0,0-.43-.17A9,9,0,0,0,12,0,8.47,8.47,0,0,0,8.87.31a1.89,1.89,0,0,0-.5.38C8.22.88,8.2,1,8.31,1a1.61,1.61,0,0,1,1.1.55l.08.15a2.47,2.47,0,0,1,.18.59,5.16,5.16,0,0,1,.11.93,8.55,8.55,0,0,1,0,1.6c0,.44-.08.79-.12,1a2.06,2.06,0,0,1-.17.6,1.48,1.48,0,0,1-.16.28l-.06.07a1,1,0,0,1-.35.06.82.82,0,0,1-.44-.18,2.79,2.79,0,0,1-.54-.49,7.7,7.7,0,0,1-.63-.87c-.26-.43-.5-.88-.72-1.33l-.21-.37c-.13-.24-.31-.59-.53-1s-.41-.88-.59-1.33A.86.86,0,0,0,4.94.84L4.88.8A.68.68,0,0,0,4.67.7,1.4,1.4,0,0,0,4.38.61L.83.64A.92.92,0,0,0,.09.88L0,1a.45.45,0,0,0,0,.2,1.07,1.07,0,0,0,.08.35C.59,2.69,1.15,3.85,1.77,5S2.9,7,3.35,7.68,4.26,9,4.72,9.61s.78,1,.93,1.16a4.87,4.87,0,0,0,.36.38l.32.31a7.82,7.82,0,0,0,.91.74c.4.28.85.56,1.33.84a7.41,7.41,0,0,0,1.71.67,5.73,5.73,0,0,0,1.89.22h1.48a1,1,0,0,0,.69-.29l.05-.06a.67.67,0,0,0,.1-.23,1.37,1.37,0,0,0,0-.36,4.39,4.39,0,0,1,.09-1,2.52,2.52,0,0,1,.22-.66,1.49,1.49,0,0,1,.28-.38,1,1,0,0,1,.22-.18l.1,0a.82.82,0,0,1,.73.2,4.21,4.21,0,0,1,.79.74c.25.3.54.63.89,1a6.12,6.12,0,0,0,.9.82l.26.15a2.73,2.73,0,0,0,.68.28,1.43,1.43,0,0,0,.72.07l3.31-.05a1.61,1.61,0,0,0,.77-.16.65.65,0,0,0,.32-.35.94.94,0,0,0,0-.44,2.14,2.14,0,0,0-.09-.34Z"/></g></g></svg>