<?xml version="1.0" encoding="UTF-8"?><!DOCTYPE svg PUBLIC "-//W3C//DTD SVG 1.1//EN" "http://www.w3.org/Graphics/SVG/1.1/DTD/svg11.dtd"><svg xmlns="http://www.w3.org/2000/svg"><defs>
        <style>
            .cls-1{fill:#383838}
        </style>
    
        <style>
            .cls-1{fill:#383838}
        </style>
    </defs><symbol id="icon-basket" viewBox="0 0 18 18">
    
    <title>
        &#x420;&#x435;&#x441;&#x443;&#x440;&#x441; 1
    </title>
    <g id="&#x421;&#x43B;&#x43E;&#x439;_2" data-name="&#x421;&#x43B;&#x43E;&#x439; 2">
        <path class="cls-1" d="M1.83 5.4h2.6v1.8h1.83V5.4h5.48v1.8h1.83V5.4h2.6L14.6 16.2H3.39zm4.49-1.8A2.81 2.81 0 0 1 9 1.8a2.82 2.82 0 0 1 2.69 1.8zm-4.49 0h-.26A1.8 1.8 0 0 0 0 5.65l1.58 10.81A1.82 1.82 0 0 0 3.39 18H14.6a1.81 1.81 0 0 0 1.81-1.54L18 5.65a2 2 0 0 0 0-.25 1.82 1.82 0 0 0-1.83-1.8h-2.63A4.53 4.53 0 0 0 9 0a4.52 4.52 0 0 0-4.54 3.6z" id="&#x421;&#x43B;&#x43E;&#x439;_1-2" data-name="&#x421;&#x43B;&#x43E;&#x439; 1"/>
    </g>
</symbol><symbol id="icon-user" viewBox="0 0 20 20">
    
    <title>
        user
    </title>
    <g id="&#x421;&#x43B;&#x43E;&#x439;_2" data-name="&#x421;&#x43B;&#x43E;&#x439; 2">
        <g id="&#x421;&#x43B;&#x43E;&#x439;_1-2" data-name="&#x421;&#x43B;&#x43E;&#x439; 1">
            <path id="noktc" class="cls-1" d="M10 6.36a1.84 1.84 0 0 1 1.82 2c0 1.91-.75 2.55-1.82 2.55s-1.82-.67-1.82-2.73A1.7 1.7 0 0 1 10 6.36zm3.65 2A3.64 3.64 0 0 0 10 4.54a3.51 3.51 0 0 0-3.64 3.64c0 3.12 1.64 4.55 3.64 4.55s3.65-1.38 3.65-4.37zM10 18.17a8.13 8.13 0 0 1-5.42-2.05c.26-1 2.18-1.58 5.42-1.58s5.16.63 5.42 1.58A8.08 8.08 0 0 1 10 18.17zm0-5.44c-3.3 0-5.7.58-6.73 1.93a8.19 8.19 0 1 1 13.46 0c-1-1.35-3.43-1.93-6.73-1.93zM20 10a10 10 0 1 0-10 10 10 10 0 0 0 10-10z"/>
        </g>
    </g>
</symbol></svg>