<?xml version="1.0" encoding="UTF-8"?><!DOCTYPE svg PUBLIC "-//W3C//DTD SVG 1.1//EN" "http://www.w3.org/Graphics/SVG/1.1/DTD/svg11.dtd"><svg xmlns="http://www.w3.org/2000/svg" xmlns:xlink="http://www.w3.org/1999/xlink"><defs>
        <path id="a" d="M494.525 2234.255a.71.71 0 1 1 1 1l-5.102 5.108h16.864a.712.712 0 0 1 0 1.422h-16.864l5.11 5.102c.267.28.267.72 0 1a.706.706 0 0 1-1 0l-6.32-6.32a.694.694 0 0 1 0-1z"/>
    
        <style>
            .cls-1{fill:#383838}
        </style>
    
        <style>
            .cls-1{fill:#fff}
        </style>
    
        <style>
            .cls-1{fill:#fff}
        </style>
    
        <style>
            .cls-1{fill:#383838}
        </style>
    
        <style>
            .cls-1{fill:#fff}
        </style>
    </defs><symbol id="icon-arrow-left" viewBox="0 0 20 14">
    
    <use xlink:href="#a" transform="translate(-488 -2234)"/>
</symbol><symbol id="icon-arrow-right" viewBox="0 0 20 14">
    <style>
        .st0{fill:#ff833e}
    </style>
    <path id="ayi2a" class="st0" d="M13.4 13.8c-.3.3-.7.3-1 .1s-.3-.7-.1-1l.1-.1 5.1-5.1H.7C.3 7.7 0 7.4 0 7c0-.4.3-.7.7-.7h16.9l-5.1-5.1c-.3-.3-.3-.7 0-1 .3-.3.7-.3 1 0l6.3 6.3c.3.3.3.7 0 1l-6.4 6.3z"/>
</symbol><symbol id="icon-back" viewBox="0 0 19.961 14.095">
    <path d="M6.524.255a.71.71 0 0 1 .708-.236.71.71 0 0 1 .528.528.71.71 0 0 1-.236.708l-5.1 5.108h16.862a.712.712 0 0 1 .674.711.712.712 0 0 1-.674.711H2.422l5.11 5.1a.724.724 0 0 1 0 1 .706.706 0 0 1-.5.208.706.706 0 0 1-.5-.208l-6.32-6.32a.694.694 0 0 1-.213-.5.694.694 0 0 1 .213-.5z"/>
</symbol><symbol id="icon-basket" viewBox="0 0 18 18">
    
    <title>
        &#x420;&#x435;&#x441;&#x443;&#x440;&#x441; 1
    </title>
    <g id="&#x421;&#x43B;&#x43E;&#x439;_2" data-name="&#x421;&#x43B;&#x43E;&#x439; 2">
        <path class="cls-1" d="M1.83 5.4h2.6v1.8h1.83V5.4h5.48v1.8h1.83V5.4h2.6L14.6 16.2H3.39zm4.49-1.8A2.81 2.81 0 0 1 9 1.8a2.82 2.82 0 0 1 2.69 1.8zm-4.49 0h-.26A1.8 1.8 0 0 0 0 5.65l1.58 10.81A1.82 1.82 0 0 0 3.39 18H14.6a1.81 1.81 0 0 0 1.81-1.54L18 5.65a2 2 0 0 0 0-.25 1.82 1.82 0 0 0-1.83-1.8h-2.63A4.53 4.53 0 0 0 9 0a4.52 4.52 0 0 0-4.54 3.6z" id="&#x421;&#x43B;&#x43E;&#x439;_1-2" data-name="&#x421;&#x43B;&#x43E;&#x439; 1"/>
    </g>
</symbol><symbol id="icon-check" viewBox="0 0 48 36">
    <path d="M46.225 1.125c-1.5-1.5-3.8-1.5-5.3 0l-23.9 24.9-10.6-11.1c-1.5-1.5-3.8-1.5-5.3 0s-1.5 4 0 5.5l13.3 13.8c1.5 1.5 3.8 1.5 5.3 0l26.5-27.6c1.5-1.5 1.5-4 0-5.5z"/>
</symbol><symbol id="icon-close" viewBox="0 0 27 27">
    <title>
        Group 17
    </title>
    <g transform="translate(-1 -1)" fill-rule="evenodd" opacity=".3">
        <rect transform="rotate(45 14.102 14.102)" x="12.102" y="-3.398" width="4" height="35" rx="2"/>
        <rect transform="rotate(135 14.102 14.102)" x="12.102" y="-3.398" width="4" height="35" rx="2"/>
    </g>
</symbol><symbol id="icon-facebook" viewBox="0 0 10 22">
    
    <title>
        facebook
    </title>
    <g id="&#x421;&#x43B;&#x43E;&#x439;_2" data-name="&#x421;&#x43B;&#x43E;&#x439; 2">
        <g id="&#x421;&#x43B;&#x43E;&#x439;_1-2" data-name="&#x421;&#x43B;&#x43E;&#x439; 1">
            <path id="edqwa" class="cls-1" d="M2.5 22V11.92H0V8.25h2.5V5a5.3 5.3 0 0 1 1.26-3.55A4.68 4.68 0 0 1 7.5 0c.42 0 .83 0 1.25.05s.72.07.93.1L10 .2l-.14 3.47H7.71a1.27 1.27 0 0 0-1.17.46 2.61 2.61 0 0 0-.29 1.37v2.75H10l-.25 3.67h-3.5V22z"/>
        </g>
    </g>
</symbol><symbol id="icon-insta" viewBox="0 0 22 22">
    <style>
        .st0{fill:#fff}
    </style>
    <path id="ajp5a" class="st0" d="M19.5 17.5c.2-.4.3-1 .4-2 .1-1.1.1-1.5.1-4.4 0-2.9 0-3.3-.1-4.4-.1-1.1-.2-1.6-.4-2-.2-.7-.5-1.1-.8-1.5-.4-.4-.8-.6-1.3-.8-.4-.2-1-.3-2-.4H6.6c-1.1 0-1.6.2-2 .4-.6.2-1 .5-1.4.8-.4.4-.6.8-.8 1.3-.2.4-.3 1-.4 2V11c0 2.9 0 3.3.1 4.4.1 1.1.2 1.6.4 2 .2.5.4.9.8 1.3s.8.6 1.3.8c.4.2 1 .3 2 .4 1.1.1 1.4.1 4.3.1s3.3 0 4.4-.1c1.1 0 1.6-.2 2-.4.5-.2.9-.4 1.3-.8.4-.3.7-.7.9-1.2zm.6-15.7c.6.6 1 1.2 1.3 1.9.3.7.5 1.5.5 2.7.1 1.2.1 1.5.1 4.5s0 3.4-.1 4.5c-.1 1.2-.2 2-.5 2.7-.3.7-.7 1.4-1.3 1.9-.5.6-1.2 1-1.9 1.3-.7.3-1.5.5-2.7.5-1.2.2-1.6.2-4.5.2-3 0-3.4 0-4.5-.1-1.2-.1-2-.2-2.7-.5-.7-.3-1.4-.7-1.9-1.3-.6-.5-1-1.2-1.3-1.9-.3-.7-.5-1.5-.5-2.7C0 14.4 0 14 0 11s0-3.4.1-4.5c.1-1.2.2-2 .5-2.7.3-.7.7-1.4 1.3-1.9.5-.6 1.2-1 1.9-1.3C4.5.3 5.3.1 6.5.1 7.6 0 8 0 11 0s3.3 0 4.5.1c1.2.1 2 .2 2.7.5.7.3 1.3.6 1.9 1.2z"/>
    <path id="ajp5b" class="st0" d="M7.3 11c0 2 1.6 3.7 3.7 3.7 2 0 3.7-1.7 3.7-3.7s-1.6-3.7-3.6-3.7C8.9 7.3 7.3 9 7.3 11zm-2 0c0-3.1 2.5-5.7 5.6-5.7 3.1 0 5.6 2.5 5.6 5.7 0 3.1-2.5 5.7-5.6 5.7-3.1-.1-5.6-2.6-5.6-5.7z"/>
    <path id="ajp5c" class="st0" d="M16.8 6.4c.7 0 1.3-.6 1.3-1.3 0-.7-.6-1.3-1.3-1.3-.7 0-1.3.6-1.3 1.3 0 .8.6 1.3 1.3 1.3z"/>
</symbol><symbol id="icon-play" viewBox="0 0 232.153 232.153">
    <path d="M203.791 99.628L49.307 2.294C44.74-.425 39.069.028 34.786.028 17.654.028 17.73 13.255 17.73 16.606v198.94c0 2.833-.075 16.579 17.056 16.579 4.283 0 9.955.451 14.521-2.267l154.483-97.333c12.68-7.545 10.489-16.449 10.489-16.449s2.192-8.904-10.488-16.448z" fill-rule="evenodd" clip-rule="evenodd"/>
</symbol><symbol id="icon-plus" viewBox="0 0 40 40">
    
    <title>
        plus
    </title>
    <g id="&#x421;&#x43B;&#x43E;&#x439;_2" data-name="&#x421;&#x43B;&#x43E;&#x439; 2">
        <g id="&#x421;&#x43B;&#x43E;&#x439;_1-2" data-name="&#x421;&#x43B;&#x43E;&#x439; 1">
            <path class="cls-1" d="M18 2a2 2 0 0 1 4 0v36a2 2 0 0 1-4 0z"/>
            <path class="cls-1" d="M38 18a2 2 0 0 1 0 4H2a2 2 0 0 1 0-4z"/>
        </g>
    </g>
</symbol><symbol id="icon-user" viewBox="0 0 20 20">
    
    <title>
        user
    </title>
    <g id="&#x421;&#x43B;&#x43E;&#x439;_2" data-name="&#x421;&#x43B;&#x43E;&#x439; 2">
        <g id="&#x421;&#x43B;&#x43E;&#x439;_1-2" data-name="&#x421;&#x43B;&#x43E;&#x439; 1">
            <path id="noktc" class="cls-1" d="M10 6.36a1.84 1.84 0 0 1 1.82 2c0 1.91-.75 2.55-1.82 2.55s-1.82-.67-1.82-2.73A1.7 1.7 0 0 1 10 6.36zm3.65 2A3.64 3.64 0 0 0 10 4.54a3.51 3.51 0 0 0-3.64 3.64c0 3.12 1.64 4.55 3.64 4.55s3.65-1.38 3.65-4.37zM10 18.17a8.13 8.13 0 0 1-5.42-2.05c.26-1 2.18-1.58 5.42-1.58s5.16.63 5.42 1.58A8.08 8.08 0 0 1 10 18.17zm0-5.44c-3.3 0-5.7.58-6.73 1.93a8.19 8.19 0 1 1 13.46 0c-1-1.35-3.43-1.93-6.73-1.93zM20 10a10 10 0 1 0-10 10 10 10 0 0 0 10-10z"/>
        </g>
    </g>
</symbol><symbol id="icon-vk" viewBox="0 0 24.86 14">
    
    <title>
        vk
    </title>
    <g id="&#x421;&#x43B;&#x43E;&#x439;_2" data-name="&#x421;&#x43B;&#x43E;&#x439; 2">
        <g id="&#x421;&#x43B;&#x43E;&#x439;_1-2" data-name="&#x421;&#x43B;&#x43E;&#x439; 1">
            <path id="ctyxa" class="cls-1" d="M24.73 12.64l-.09-.16a12.86 12.86 0 0 0-2.47-2.82 12 12 0 0 1-1.05-1 1 1 0 0 1-.18-1A9.13 9.13 0 0 1 22 5.85l.84-1.08Q25.12 1.83 24.82 1l-.07-.12a.94.94 0 0 0-.4-.21 2.21 2.21 0 0 0-.83 0h-3.73a.46.46 0 0 0-.26 0h-.28a.5.5 0 0 0-.15.14 1.16 1.16 0 0 0-.13.22A20.45 20.45 0 0 1 17.59 4c-.32.53-.61 1-.88 1.38a6.44 6.44 0 0 1-.67.85 4.14 4.14 0 0 1-.5.44c-.14.11-.25.16-.33.14L15 6.77a.79.79 0 0 1-.29-.31 1.39 1.39 0 0 1-.15-.5 4.36 4.36 0 0 1-.05-.52v-.61-.53-1.06-.9-.7a2.82 2.82 0 0 0-.05-.58 1.42 1.42 0 0 0-.06-.41.61.61 0 0 0-.26-.31 1.33 1.33 0 0 0-.43-.17A9 9 0 0 0 12 0a8.47 8.47 0 0 0-3.13.31 1.89 1.89 0 0 0-.5.38C8.22.88 8.2 1 8.31 1a1.61 1.61 0 0 1 1.1.55l.08.15a2.47 2.47 0 0 1 .18.59 5.16 5.16 0 0 1 .11.93 8.55 8.55 0 0 1 0 1.6c0 .44-.08.79-.12 1a2.06 2.06 0 0 1-.17.6 1.48 1.48 0 0 1-.16.28l-.06.07a1 1 0 0 1-.35.06.82.82 0 0 1-.44-.18 2.79 2.79 0 0 1-.54-.49 7.7 7.7 0 0 1-.63-.87c-.26-.43-.5-.88-.72-1.33l-.21-.37c-.13-.24-.31-.59-.53-1s-.41-.88-.59-1.33a.86.86 0 0 0-.32-.42L4.88.8a.68.68 0 0 0-.21-.1 1.4 1.4 0 0 0-.29-.09L.83.64a.92.92 0 0 0-.74.24L0 1a.45.45 0 0 0 0 .2 1.07 1.07 0 0 0 .08.35C.59 2.69 1.15 3.85 1.77 5S2.9 7 3.35 7.68 4.26 9 4.72 9.61s.78 1 .93 1.16a4.87 4.87 0 0 0 .36.38l.32.31a7.82 7.82 0 0 0 .91.74c.4.28.85.56 1.33.84a7.41 7.41 0 0 0 1.71.67 5.73 5.73 0 0 0 1.89.22h1.48a1 1 0 0 0 .69-.29l.05-.06a.67.67 0 0 0 .1-.23 1.37 1.37 0 0 0 0-.36 4.39 4.39 0 0 1 .09-1 2.52 2.52 0 0 1 .22-.66 1.49 1.49 0 0 1 .28-.38 1 1 0 0 1 .22-.18h.1a.82.82 0 0 1 .73.2 4.21 4.21 0 0 1 .79.74c.25.3.54.63.89 1a6.12 6.12 0 0 0 .9.82l.26.15a2.73 2.73 0 0 0 .68.28 1.43 1.43 0 0 0 .72.07l3.31-.05a1.61 1.61 0 0 0 .77-.16.65.65 0 0 0 .32-.35.94.94 0 0 0 0-.44 2.14 2.14 0 0 0-.09-.34z"/>
        </g>
    </g>
</symbol></svg>